<mxfile host="app.diagrams.net" modified="2023-11-06T19:48:42.108Z" agent="Mozilla/5.0 (Windows NT 10.0; Win64; x64) AppleWebKit/537.36 (KHTML, like Gecko) Chrome/119.0.0.0 Safari/537.36" etag="5o1arjYvvN12dZgRIERS" version="22.0.8" type="device">
  <diagram name="PÃ¡gina-1" id="aGkTChpbNLb0Tgu5Q4g4">
    <mxGraphModel dx="2321" dy="658" grid="1" gridSize="10" guides="1" tooltips="1" connect="1" arrows="1" fold="1" page="1" pageScale="1" pageWidth="827" pageHeight="1169" math="0" shadow="0">
      <root>
        <mxCell id="0" />
        <mxCell id="1" parent="0" />
        <mxCell id="UWSHDWWLjvn9pKR7g22o-22" style="edgeStyle=orthogonalEdgeStyle;rounded=0;orthogonalLoop=1;jettySize=auto;html=1;exitX=1;exitY=0.25;exitDx=0;exitDy=0;entryX=1;entryY=0.5;entryDx=0;entryDy=0;" edge="1" parent="1" source="UWSHDWWLjvn9pKR7g22o-12" target="UWSHDWWLjvn9pKR7g22o-7">
          <mxGeometry relative="1" as="geometry">
            <Array as="points">
              <mxPoint x="470" y="533" />
              <mxPoint x="470" y="425" />
            </Array>
          </mxGeometry>
        </mxCell>
        <mxCell id="UWSHDWWLjvn9pKR7g22o-12" value="" style="rounded=0;whiteSpace=wrap;html=1;" vertex="1" parent="1">
          <mxGeometry x="110" y="510" width="320" height="90" as="geometry" />
        </mxCell>
        <mxCell id="UWSHDWWLjvn9pKR7g22o-21" style="edgeStyle=orthogonalEdgeStyle;rounded=0;orthogonalLoop=1;jettySize=auto;html=1;exitX=1;exitY=0.75;exitDx=0;exitDy=0;entryX=0;entryY=0.5;entryDx=0;entryDy=0;strokeColor=#FFD966;" edge="1" parent="1" source="UWSHDWWLjvn9pKR7g22o-7" target="UWSHDWWLjvn9pKR7g22o-12">
          <mxGeometry relative="1" as="geometry" />
        </mxCell>
        <mxCell id="UWSHDWWLjvn9pKR7g22o-24" style="edgeStyle=orthogonalEdgeStyle;rounded=0;orthogonalLoop=1;jettySize=auto;html=1;exitX=1;exitY=0.25;exitDx=0;exitDy=0;entryX=1;entryY=0.5;entryDx=0;entryDy=0;" edge="1" parent="1" source="UWSHDWWLjvn9pKR7g22o-7" target="UWSHDWWLjvn9pKR7g22o-6">
          <mxGeometry relative="1" as="geometry">
            <Array as="points">
              <mxPoint x="470" y="403" />
              <mxPoint x="470" y="295" />
            </Array>
          </mxGeometry>
        </mxCell>
        <mxCell id="UWSHDWWLjvn9pKR7g22o-7" value="" style="rounded=0;whiteSpace=wrap;html=1;" vertex="1" parent="1">
          <mxGeometry x="110" y="380" width="320" height="90" as="geometry" />
        </mxCell>
        <mxCell id="UWSHDWWLjvn9pKR7g22o-20" style="edgeStyle=orthogonalEdgeStyle;rounded=0;orthogonalLoop=1;jettySize=auto;html=1;exitX=1;exitY=0.75;exitDx=0;exitDy=0;entryX=0;entryY=0.5;entryDx=0;entryDy=0;strokeColor=#FFD966;" edge="1" parent="1" source="UWSHDWWLjvn9pKR7g22o-6" target="UWSHDWWLjvn9pKR7g22o-7">
          <mxGeometry relative="1" as="geometry" />
        </mxCell>
        <mxCell id="UWSHDWWLjvn9pKR7g22o-28" style="edgeStyle=orthogonalEdgeStyle;rounded=0;orthogonalLoop=1;jettySize=auto;html=1;exitX=1;exitY=0.25;exitDx=0;exitDy=0;entryX=1;entryY=0.25;entryDx=0;entryDy=0;" edge="1" parent="1" source="UWSHDWWLjvn9pKR7g22o-6" target="UWSHDWWLjvn9pKR7g22o-26">
          <mxGeometry relative="1" as="geometry" />
        </mxCell>
        <mxCell id="UWSHDWWLjvn9pKR7g22o-6" value="" style="rounded=0;whiteSpace=wrap;html=1;" vertex="1" parent="1">
          <mxGeometry x="110" y="250" width="320" height="90" as="geometry" />
        </mxCell>
        <mxCell id="UWSHDWWLjvn9pKR7g22o-31" style="edgeStyle=orthogonalEdgeStyle;rounded=0;orthogonalLoop=1;jettySize=auto;html=1;exitX=1;exitY=0.5;exitDx=0;exitDy=0;entryX=0;entryY=0.5;entryDx=0;entryDy=0;" edge="1" parent="1" source="UWSHDWWLjvn9pKR7g22o-1" target="UWSHDWWLjvn9pKR7g22o-25">
          <mxGeometry relative="1" as="geometry" />
        </mxCell>
        <mxCell id="UWSHDWWLjvn9pKR7g22o-34" style="edgeStyle=orthogonalEdgeStyle;rounded=0;orthogonalLoop=1;jettySize=auto;html=1;exitX=1;exitY=0.5;exitDx=0;exitDy=0;entryX=0;entryY=0.5;entryDx=0;entryDy=0;" edge="1" parent="1" source="UWSHDWWLjvn9pKR7g22o-1" target="UWSHDWWLjvn9pKR7g22o-32">
          <mxGeometry relative="1" as="geometry" />
        </mxCell>
        <mxCell id="UWSHDWWLjvn9pKR7g22o-1" value="Execute" style="rounded=0;whiteSpace=wrap;html=1;fillColor=#E6E6E6;" vertex="1" parent="1">
          <mxGeometry x="-120" y="170" width="120" height="50" as="geometry" />
        </mxCell>
        <mxCell id="UWSHDWWLjvn9pKR7g22o-2" value="OneR" style="rounded=0;whiteSpace=wrap;html=1;fillColor=#FFE6CC;" vertex="1" parent="1">
          <mxGeometry x="-120" y="150" width="70" height="20" as="geometry" />
        </mxCell>
        <mxCell id="UWSHDWWLjvn9pKR7g22o-5" style="edgeStyle=orthogonalEdgeStyle;rounded=0;orthogonalLoop=1;jettySize=auto;html=1;exitX=1;exitY=0.5;exitDx=0;exitDy=0;entryX=0;entryY=0.5;entryDx=0;entryDy=0;" edge="1" parent="1" source="UWSHDWWLjvn9pKR7g22o-3" target="UWSHDWWLjvn9pKR7g22o-4">
          <mxGeometry relative="1" as="geometry" />
        </mxCell>
        <mxCell id="UWSHDWWLjvn9pKR7g22o-3" value="ComputeError" style="rounded=0;whiteSpace=wrap;html=1;fillColor=#FFFFFF;" vertex="1" parent="1">
          <mxGeometry x="130" y="270" width="120" height="50" as="geometry" />
        </mxCell>
        <mxCell id="UWSHDWWLjvn9pKR7g22o-4" value="GetError" style="rounded=0;whiteSpace=wrap;html=1;fillColor=#FFFFFF;" vertex="1" parent="1">
          <mxGeometry x="290" y="270" width="120" height="50" as="geometry" />
        </mxCell>
        <mxCell id="UWSHDWWLjvn9pKR7g22o-8" style="edgeStyle=orthogonalEdgeStyle;rounded=0;orthogonalLoop=1;jettySize=auto;html=1;exitX=1;exitY=0.5;exitDx=0;exitDy=0;entryX=0;entryY=0.5;entryDx=0;entryDy=0;" edge="1" parent="1" source="UWSHDWWLjvn9pKR7g22o-9" target="UWSHDWWLjvn9pKR7g22o-10">
          <mxGeometry relative="1" as="geometry" />
        </mxCell>
        <mxCell id="UWSHDWWLjvn9pKR7g22o-9" value="ComputeProbability" style="rounded=0;whiteSpace=wrap;html=1;fillColor=#FFFFFF;" vertex="1" parent="1">
          <mxGeometry x="130" y="400" width="120" height="50" as="geometry" />
        </mxCell>
        <mxCell id="UWSHDWWLjvn9pKR7g22o-10" value="GetProbability" style="rounded=0;whiteSpace=wrap;html=1;fillColor=#FFFFFF;" vertex="1" parent="1">
          <mxGeometry x="290" y="400" width="120" height="50" as="geometry" />
        </mxCell>
        <mxCell id="UWSHDWWLjvn9pKR7g22o-13" style="edgeStyle=orthogonalEdgeStyle;rounded=0;orthogonalLoop=1;jettySize=auto;html=1;exitX=1;exitY=0.5;exitDx=0;exitDy=0;entryX=0;entryY=0.5;entryDx=0;entryDy=0;" edge="1" parent="1" source="UWSHDWWLjvn9pKR7g22o-14" target="UWSHDWWLjvn9pKR7g22o-15">
          <mxGeometry relative="1" as="geometry" />
        </mxCell>
        <mxCell id="UWSHDWWLjvn9pKR7g22o-14" value="ComputeFrequency" style="rounded=0;whiteSpace=wrap;html=1;fillColor=#FFFFFF;" vertex="1" parent="1">
          <mxGeometry x="130" y="530" width="120" height="50" as="geometry" />
        </mxCell>
        <mxCell id="UWSHDWWLjvn9pKR7g22o-15" value="GetFrequency" style="rounded=0;whiteSpace=wrap;html=1;fillColor=#FFFFFF;" vertex="1" parent="1">
          <mxGeometry x="290" y="530" width="120" height="50" as="geometry" />
        </mxCell>
        <mxCell id="UWSHDWWLjvn9pKR7g22o-25" value="1." style="rounded=0;whiteSpace=wrap;html=1;fillColor=#FFFFFF;" vertex="1" parent="1">
          <mxGeometry x="40" y="180" width="30" height="30" as="geometry" />
        </mxCell>
        <mxCell id="UWSHDWWLjvn9pKR7g22o-30" style="edgeStyle=orthogonalEdgeStyle;rounded=0;orthogonalLoop=1;jettySize=auto;html=1;exitX=1;exitY=0.75;exitDx=0;exitDy=0;entryX=0;entryY=0.5;entryDx=0;entryDy=0;strokeColor=#FFD966;" edge="1" parent="1" source="UWSHDWWLjvn9pKR7g22o-26" target="UWSHDWWLjvn9pKR7g22o-6">
          <mxGeometry relative="1" as="geometry" />
        </mxCell>
        <mxCell id="UWSHDWWLjvn9pKR7g22o-26" value="For each atributte in dataSet" style="rounded=0;whiteSpace=wrap;html=1;fillColor=#FFFFFF;" vertex="1" parent="1">
          <mxGeometry x="70" y="180" width="170" height="30" as="geometry" />
        </mxCell>
        <mxCell id="UWSHDWWLjvn9pKR7g22o-32" value="2" style="rounded=0;whiteSpace=wrap;html=1;fillColor=#FFFFFF;" vertex="1" parent="1">
          <mxGeometry x="50" y="630" width="30" height="30" as="geometry" />
        </mxCell>
        <mxCell id="UWSHDWWLjvn9pKR7g22o-33" value="...." style="rounded=0;whiteSpace=wrap;html=1;fillColor=#FFFFFF;" vertex="1" parent="1">
          <mxGeometry x="80" y="630" width="170" height="30" as="geometry" />
        </mxCell>
      </root>
    </mxGraphModel>
  </diagram>
</mxfile>
